<?xml version="1.0" encoding="UTF-8" standalone="no"?>
<!-- Created with Inkscape (http://www.inkscape.org/) -->

<svg
   width="32mm"
   height="20.981018mm"
   viewBox="0 0 32 20.981018"
   version="1.1"
   id="svg1"
   xml:space="preserve"
   xmlns:xlink="http://www.w3.org/1999/xlink"
   xmlns="http://www.w3.org/2000/svg"
   xmlns:svg="http://www.w3.org/2000/svg"><defs
     id="defs1"><linearGradient
       id="linearGradient1"><stop
         style="stop-color:#40addf;stop-opacity:1;"
         offset="0"
         id="stop1" /><stop
         style="stop-color:#33d17a;stop-opacity:1;"
         offset="1"
         id="stop2" /></linearGradient><linearGradient
       xlink:href="#linearGradient1"
       id="linearGradient2"
       x1="14.78769"
       y1="79.654144"
       x2="143.45232"
       y2="79.654144"
       gradientUnits="userSpaceOnUse"
       gradientTransform="matrix(0.24870862,0,0,0.24870862,11.109864,28.154065)" /></defs><g
     id="layer1"
     transform="translate(-14.78769,-37.474229)"><path
       id="rect5"
       style="fill:url(#linearGradient2);stroke-width:0.0658041"
       d="m 14.78769,37.474229 28.907358,3.084816 -3.078851,1.747136 -2.21291,1.19458 0.308737,3.214029 1.707104,-0.570426 -0.762235,-0.714403 3.670641,-0.186946 0.583759,0.662204 1.694136,0.09547 1.182261,1.893036 -1.554901,-0.771044 -3.086144,1.273477 -2.517344,5.258222 -7.340418,0.04114 -12.618956,4.759726 -0.886547,-0.08046 15.483523,-8.965811 -0.126394,-1.002156 -5.194483,-1.17716 -1.972245,-1.420263 5.777419,-1.214168 -8.360212,0.450988 -3.403297,-2.222851 7.552017,-1.166886 -9.691887,-0.52141 z" /></g></svg>
